PathFileType	4	(X/Y/Z)	C:/Users/beibeiliu/ov580/test_trc\sequence.30_training_dense_left.trc
DataRate	CameraRate	NumFrames	NumMarkers	Units	OrigDataRate	OrigDataStartFrame	OrigNumFrames
120	120	10	19	mm	120	35	69
Frame#	Time	ThumbCMC			ThumbMCP			ThumbIP			ThumbTip			IndexMCP			IndexPIP			IndexTip			MiddleMCP			MiddlePIP			MiddleTip			RingMCP			RingPIP			RingTip			PinkyMCP			PinkyPIP			PinkyTip			BackHand1			BackHand2			BackHand3	
		X0	Y0	Z0	X1	Y1	Z1	X2	Y2	Z2	X3	Y3	Z3	X4	Y4	Z4	X5	Y5	Z5	X6	Y6	Z6	X7	Y7	Z7	X8	Y8	Z8	X9	Y9	Z9	X10	Y10	Z10	X11	Y11	Z11	X12	Y12	Z12	X13	Y13	Z13	X14	Y14	Z14	X15	Y15	Z15	X16	Y16	Z16	X17	Y17	Z17	X18	Y18	Z18	
34	0.283333	-193.419	65.2489	117.071	-162.161	79.0835	110.813	-142.744	85.8513	94.5315	-126.199	90.5432	78.5304	-172.703	56.5884	49.3407	-144.21	60.5991	35.7616	-124.821	61.0676	28.3005	-161.313	39.001	42.6527	-135.536	43.2618	32.7041	-107.738	52.2491	25.4095	-154.818	19.7804	50.6556	-131.811	29.3468	39.415	-105.874	36.0842	32.2543	-152.454	3.24843	65.809	-130.796	13.6859	52.2867	-112.029	20.5646	39.6432	-197.562	9.28089	86.5491	-210.75	5.53354	116.157	-212.637	33.0835	96.5	
35	0.291667	-216.555	53.1962	109.91	-188.638	67.7696	92.9306	-173.08	74.3419	76.2841	-157.967	80.4214	58.7126	-199.022	37.2327	38.2585	-175.276	46.7802	21.4788	-155.374	48.008	13.4789	-182.312	17.3372	36.0168	-161.926	29.1938	21.9052	-138.415	40.4798	10.1284	-172.881	4.17452	45.3568	-152.185	15.0456	30.1668	-132.851	25.8688	20.784	-165.372	-7.41287	57.1822	-148.588	2.72022	44.2185	-131.993	7.36174	31.9445	-209.538	-10.5931	84.417	-220.912	-11.6147	114.831	-229.646	15.2073	96.1225	
36	0.3	-241.415	40.3263	101.653	-217.939	54.2428	79.8655	-205.986	61.6392	59.9285	-196.398	72.6143	39.1158	-228.569	14.0296	32.8539	-213.356	20.7662	14.2116	-192.034	26.8644	-1.14094	-215.708	-0.55739	30.6751	-200.324	9.64833	11.2111	-176.276	19.1855	-4.80286	-201.389	-11.4588	40.0255	-186.127	-2.12197	21.7513	-166.766	13.7037	1.25114	-190.371	-17.3465	50.4252	-178.32	-8.49059	34.3276	-161.457	-3.184	14.847	-225.456	-24.9321	88.4263	-234.342	-22.3911	114.904	-249.54	-1.01774	95.3275	
37	0.308333	-254.944	42.1478	98.9961	-236.034	56.402	73.5984	-227.042	63.4296	53.5571	-220.832	72.0325	31.3788	-256.715	16.3257	28.0788	-245.014	22.7291	6.78799	-228.823	29.8825	-11.5843	-245.253	-0.478583	29.411	-231.988	7.77935	4.65573	-212.865	16.8747	-15.4382	-230.249	-11.6995	33.867	-219.008	-0.0441003	8.94553	-200.295	9.05237	-11.9501	-218.302	-20.4509	47.2778	-207.564	-11.8548	25.7295	-202.181	-4.73206	4.79351	-249.322	-18.1374	88.0242	-247.725	-20.7244	115.821	-270.586	5.54723	95.1749	
38	0.316667	-248.159	62.5175	104.468	-226.309	77.1973	79.8819	-218.999	82.8151	54.4049	-213.157	82.8951	34.9701	-269.425	51.4911	36.8358	-258.156	58.1055	10.0811	-242.314	54.5112	-10.4576	-265.555	35.173	29.8673	-250.964	37.064	3.65473	-231.685	41.157	-21.1839	-254.562	18.7682	29.8766	-242.534	23.0409	7.12487	-227.403	29.204	-14.0856	-243.811	4.09874	39.4242	-233.996	7.28603	19.387	-226.375	13.7755	-6.73867	-264.462	5.26677	85.8735	-263.991	6.6305	113.797	-277.018	36.5982	100.99	
39	0.325	-220.731	74.5866	109.616	-199.246	77.0027	85.839	-188.909	85.7661	57.163	-183.818	89.5347	32.8092	-246.475	87.4853	39.6314	-238.038	89.8988	19.9561	-225.555	85.9358	-6.31076	-253.51	68.6504	31.0246	-240.127	70.3177	6.45452	-226.939	67.7595	-15.0035	-253.261	53.8313	33.1507	-241.211	53.3133	7.95376	-227.496	53.349	-16.6245	-251.875	33.7028	36.3229	-241.828	36.2376	16.6283	-231.99	40.755	-6.95534	-267.43	42.076	87.8957	-262.84	31.8814	114.187	-256.983	68.33	109.034	
40	0.333333	-187.434	70.9984	112.018	-170.939	66.3834	85.2456	-159.001	72.2416	60.78	-152.167	75.6019	38.1898	-211.809	99.6809	45.1761	-200.297	100.016	23.5149	-194.742	92.7569	-0.289132	-224.557	87.4472	36.6707	-213.417	86.1028	12.601	-197.042	83.2061	-12.1157	-234.271	71.0145	34.6865	-223.342	70.9586	11.3895	-207.278	68.4938	-13.6871	-240.935	55.0635	41.1463	-231.802	52.528	18.1876	-220.911	57.8319	-3.96176	-251.888	61.17	86.1384	-249.423	49.7536	116.192	-230.674	78.1576	111.759	
41	0.341667	-164.481	52.9577	117.402	-149.903	41.2533	93.2492	-132.512	44.8792	64.8091	-128.335	47.6893	43.0985	-171.185	90.4508	53.9351	-161.349	88.3289	31.2236	-156.075	78.9678	6.31445	-188.155	83.2302	39.4566	-175.484	79.0807	16.4744	-164.791	68.156	-8.96509	-204.737	70.4763	37.2905	-189.883	67.3426	15.8063	-175.327	60.15	-6.93636	-217.542	56.5425	38.9395	-204.45	53.106	19.6854	-192.479	51.762	-4.65123	-224.704	66.1679	89.5213	-226.934	54.4159	117.418	-199.659	73.2652	116.244	
42	0.35	-147.473	31.0109	120.957	-127.561	14.8796	102.815	-116.559	13.0286	75.1081	-107.881	10.8124	56.362	-133.16	64.9572	60.2042	-120.977	55.1609	35.2811	-112.664	43.48	11.8847	-149.82	59.427	42.7295	-138.316	49.6309	21.2015	-121.156	34.3221	-0.306684	-170.247	50.894	39.9493	-157.677	40.3486	16.4096	-141.341	29.7829	-0.465453	-186.773	41.5801	40.8264	-172.114	34.3831	23.8165	-158.493	30.1174	4.47531	-197.801	56.5636	91.256	-207.437	47.2334	117.059	-175.359	58.9328	117.078	
43	0.358333	-132.688	16.352	129.919	-117.321	-2.96301	110.836	-100.955	-11.704	92.6238	-88.2709	-17.9731	68.5621	-111.585	39.1878	61.7503	-95.1519	29.1831	46.6199	-88.5352	14.6357	25.6383	-127.665	36.6731	49.6891	-108.428	22.0265	29.2687	-98.8754	3.27529	11.9635	-142.032	29.257	41.8805	-132.174	17.515	25.3884	-118.725	-0.290606	6.56582	-159.525	23.9865	44.3129	-149.439	12.7329	28.6764	-136.298	4.71986	12.395	-173.739	45.8535	88.5645	-192.37	40.4063	114.435	-154.996	47.3152	119.437	
